#!OML:ASF E:\motion texture\Top Level 1\Subject 1\Session 1\male.ASF
:FULLY-SPECIFIED
:DEGREES
216
root 8.85967 17.5295 4.8848 -349.478 -67.6494 358.418
lowerback 8.36372 3.61032 1.86848
upperback 3.92691 4.85698 2.60697
thorax -0.682753 2.3784 1.2141
lowerneck -16.3612 -8.62713 -9.93752
upperneck 1.57282 -10.515 12.4794
head 4.30858 -4.70844 4.51042
rclavicle 1.23246e-014 -9.54166e-015
rhumerus 6.42462 37.5021 -68.0457
rradius 79.4121
rwrist -32.3512
rhand 18.5089 -37.1623
rfingers 7.12502
rthumb 43.1435 -61.3573
lclavicle 1.23246e-014 -9.54166e-015
lhumerus -25.7295 1.12812 86.6246
lradius 50.1709
lwrist 14.4676
lhand -8.70703 33.2588
lfingers 7.12502
lthumb 17.2284 62.5151
rfemur -40.0559 -14.9564 20.48
rtibia 34.226
rfoot -3.22017 -21.0443
rtoes 8.38157
lfemur -17.9769 -10.812 -16.1592
ltibia 31.066
lfoot -17.3668 -3.09
ltoes -7.19598
217
root 8.6617 17.529 4.86843 -349.652 -67.2167 358.58
lowerback 8.14682 3.71678 1.92344
upperback 3.81685 5.00403 2.56625
thorax -0.670256 2.45513 1.1393
lowerneck -16.2847 -8.84373 -10.1224
upperneck 1.63441 -10.7908 12.6169
head 4.36487 -4.8386 4.55106
rclavicle -4.37326e-015 -3.49861e-014
rhumerus 7.72081 37.1947 -66.5075
rradius 79.6092
rwrist -32.8748
rhand 18.8796 -36.8642
rfingers 7.12502
rthumb 43.4899 -60.9348
lclavicle -4.37326e-015 -3.49861e-014
lhumerus -25.8028 1.681 85.8438
lradius 49.6621
lwrist 13.5715
lhand -8.97437 33.3572
lfingers 7.12502
lthumb 16.9711 62.6358
rfemur -39.8171 -14.8736 20.097
rtibia 32.6533
rfoot -3.01241 -21.4937
rtoes 8.86802
lfemur -17.3651 -10.9018 -15.9578
ltibia 31.0697
lfoot -17.5195 -3.39717
ltoes -7.83055
218
root 8.46333 17.528 4.8513 -349.787 -66.7959 358.696
lowerback 7.9399 3.82261 1.98849
upperback 3.70583 5.15088 2.52834
thorax -0.662961 2.53159 1.0619
lowerneck -16.2027 -9.05477 -10.3002
upperneck 1.70181 -11.0616 12.7472
head 4.4215 -4.96663 4.58849
rclavicle 7.63333e-014 3.18055e-015
rhumerus 9.04553 36.734 -64.9971
rradius 79.7311
rwrist -33.3692
rhand 19.1465 -36.6651
rfingers 7.12502
rthumb 43.7391 -60.6446
lclavicle 7.63333e-014 3.18055e-015
lhumerus -25.8733 2.21931 85.0695
lradius 49.1827
lwrist 12.7151
lhand -9.20431 33.4072
lfingers 7.12502
lthumb 16.7498 62.7046
rfemur -39.5488 -14.7553 19.725
rtibia 31.1733
rfoot -2.80382 -21.972
rtoes 9.41854
lfemur -16.7999 -10.9801 -15.7238
ltibia 31.1413
lfoot -17.6238 -3.72908
ltoes -8.49539
219
root 8.26468 17.5265 4.83335 -349.883 -66.3846 358.766
lowerback 7.74201 3.92511 2.06457
upperback 3.59379 5.29395 2.49442
thorax -0.660393 2.60599 0.982892
lowerneck -16.1204 -9.259 -10.4725
upperneck 1.77773 -11.3251 12.8704
head 4.47989 -5.09121 4.62318
rclavicle -1.86858e-014 -3.02153e-014
rhumerus 10.3955 36.1271 -63.5259
rradius 79.7661
rwrist -33.8438
rhand 19.3157 -36.5776
rfingers 7.12502
rthumb 43.8971 -60.4988
lclavicle -1.86858e-014 -3.02153e-014
lhumerus -25.9426 2.75138 84.3032
lradius 48.7334
lwrist 11.9025
lhand -9.40338 33.419
lfingers 7.12502
lthumb 16.5581 62.7326
rfemur -39.2568 -14.6056 19.3698
rtibia 29.792
rfoot -2.59826 -22.4754
rtoes 10.0345
lfemur -16.2876 -11.0528 -15.4558
ltibia 31.2825
lfoot -17.6727 -4.08566
ltoes -9.18636
220
root 8.06571 17.5247 4.81459 -349.939 -65.9854 358.787
lowerback 7.55239 4.02601 2.14931
upperback 3.48189 5.43526 2.46723
thorax -0.661391 2.67926 0.906266
lowerneck -16.0356 -9.45666 -10.6362
upperneck 1.85998 -11.5819 12.9819
head 4.53846 -5.21293 4.65326
rclavicle -1.06151e-013 1.59028e-014
rhumerus 11.7561 35.3802 -62.1092
rradius 79.7029
rwrist -34.2891
rhand 19.3836 -36.5993
rfingers 7.12502
rthumb 43.9605 -60.4969
lclavicle -1.06151e-013 1.59028e-014
lhumerus -26.0124 3.27633 83.5511
lradius 48.3155
lwrist 11.1394
lhand -9.57382 33.4016
lfingers 7.12502
lthumb 16.394 62.7288
rfemur -38.9422 -14.4274 19.0397
rtibia 28.5118
rfoot -2.39715 -22.9927
rtoes 10.7011
lfemur -15.8271 -11.1203 -15.1529
ltibia 31.4919
lfoot -17.6619 -4.46299
ltoes -9.90209
221
root 7.86644 17.5228 4.79511 -349.959 -65.5986 358.764
lowerback 7.37308 4.12496 2.24723
upperback 3.36836 5.57477 2.44285
thorax -0.66812 2.75145 0.82523
lowerneck -15.9506 -9.64765 -10.7956
upperneck 1.95264 -11.8319 13.0901
head 4.59961 -5.33122 4.68187
rclavicle 7.07673e-014 4.77083e-015
rhumerus 13.1142 34.4996 -60.7656
rradius 79.5332
rwrist -34.6986
rhand 19.3482 -36.7372
rfingers 7.12502
rthumb 43.9274 -60.6471
lclavicle 7.07673e-014 4.77083e-015
lhumerus -26.0869 3.79012 82.8099
lradius 47.9289
lwrist 10.4294
lhand -9.7261 33.3585
lfingers 7.12502
lthumb 16.2474 62.6977
rfemur -38.6086 -14.2246 18.7384
rtibia 27.3362
rfoot -2.20234 -23.5167
rtoes 11.4116
lfemur -15.4199 -11.1863 -14.8182
ltibia 31.7687
lfoot -17.5866 -4.8574
ltoes -10.6489
222
root 7.66676 17.521 4.7749 -349.944 -65.2225 358.693
lowerback 7.20362 4.21905 2.35469
upperback 3.25743 5.70813 2.42631
thorax -0.676781 2.8203 0.747414
lowerneck -15.8698 -9.82962 -10.9453
upperneck 2.05455 -12.0718 13.1867
head 4.66227 -5.44467 4.70599
rclavicle 5.32743e-014 -1.59028e-015
rhumerus 14.4772 33.5014 -59.4951
rradius 79.2466
rwrist -35.0706
rhand 19.2074 -36.9904
rfingers 7.12502
rthumb 43.796 -60.9489
lclavicle 5.32743e-014 -1.59028e-015
lhumerus -26.1636 4.30938 82.0842
lradius 47.5704
lwrist 9.76711
lhand -9.84413 33.2773
lfingers 7.12502
lthumb 16.1337 62.6258
rfemur -38.2527 -14.0005 18.4722
rtibia 26.267
rfoot -2.01628 -24.0408
rtoes 12.1648
lfemur -15.0606 -11.2536 -14.451
ltibia 32.1108
lfoot -17.4415 -5.26866
ltoes -11.3933
223
root 7.46692 17.5195 4.75392 -349.891 -64.8608 358.576
lowerback 7.04359 4.31226 2.4742
upperback 3.14428 5.84104 2.41373
thorax -0.691489 2.88868 0.666798
lowerneck -15.786 -10.0041 -11.0834
upperneck 2.16474 -12.3048 13.2756
head 4.72551 -5.55498 4.72636
rclavicle 7.71285e-014 1.74931e-014
rhumerus 15.8196 32.3906 -58.3206
rradius 78.8387
rwrist -35.3839
rhand 18.9719 -37.3577
rfingers 7.12502
rthumb 43.5762 -61.3969
lclavicle 7.71285e-014 1.74931e-014
lhumerus -26.25 4.81489 81.374
lradius 47.2437
lwrist 9.15933
lhand -9.94505 33.1765
lfingers 7.12502
lthumb 16.0366 62.5328
rfemur -37.8867 -13.7584 18.2485
rtibia 25.309
rfoot -1.84286 -24.5543
rtoes 12.952
lfemur -14.7581 -11.3234 -14.0526
ltibia 32.522
lfoot -17.2274 -5.69163
ltoes -12.1157
224
root 7.26683 17.5184 4.73224 -349.805 -64.5111 358.414
lowerback 6.89537 4.40326 2.60613
upperback 3.03108 5.9717 2.40659
thorax -0.711409 2.95566 0.58467
lowerneck -15.7022 -10.1711 -11.2145
upperneck 2.28321 -12.5298 13.3587
head 4.79001 -5.66142 4.74441
rclavicle 1.98785e-014 3.18055e-015
rhumerus 17.1393 31.1819 -57.2454
rradius 78.3069
rwrist -35.6356
rhand 18.6297 -37.8329
rfingers 7.12502
rthumb 43.2565 -61.9876
lclavicle 1.98785e-014 3.18055e-015
lhumerus -26.3464 5.31062 80.6816
lradius 46.9468
lwrist 8.60167
lhand -10.026 33.0552
lfingers 7.12502
lthumb 15.9586 62.4178
rfemur -37.5059 -13.5038 18.0708
rtibia 24.459
rfoot -1.68216 -25.0487
rtoes 13.7623
lfemur -14.5064 -11.3999 -13.6252
ltibia 32.9992
lfoot -16.9468 -6.11615
ltoes -12.8346
225
root 7.06663 17.5179 4.70995 -349.686 -64.1751 358.208
lowerback 6.75817 4.49064 2.75057
upperback 2.91743 6.09828 2.40477
thorax -0.736505 3.0203 0.500982
lowerneck -15.6206 -10.329 -11.3339
upperneck 2.41136 -12.7454 13.4331
head 4.85578 -5.76331 4.7586
rclavicle 3.26007e-014 -3.18055e-014
rhumerus 18.4338 29.893 -56.2764
rradius 77.649
rwrist -35.8154
rhand 18.1773 -38.4049
rfingers 7.12502
rthumb 42.8335 -62.7094
lclavicle 3.26007e-014 -3.18055e-014
lhumerus -26.4554 5.80194 80.0068
lradius 46.6789
lwrist 8.09002
lhand -10.081 32.9058
lfingers 7.12502
lthumb 15.9056 62.2726
rfemur -37.1168 -13.2442 17.9465
rtibia 23.7202
rfoot -1.53479 -25.5104
rtoes 14.5798
lfemur -14.3078 -11.4842 -13.1707
ltibia 33.5417
lfoot -16.601 -6.53194
ltoes -13.5531
226
root 6.86638 17.5182 4.68708 -349.537 -63.8546 357.961
lowerback 6.63042 4.57476 2.90404
upperback 2.8043 6.22097 2.40894
thorax -0.765361 3.08266 0.418417
lowerneck -15.5425 -10.4773 -11.439
upperneck 2.54835 -12.951 13.4976
head 4.92232 -5.86033 4.76831
rclavicle -3.49861e-014 3.81667e-014
rhumerus 19.7002 28.5392 -55.4169
rradius 76.8675
rwrist -35.914
rhand 17.6092 -39.0654
rfingers 7.12502
rthumb 42.3017 -63.5536
lclavicle -3.49861e-014 3.81667e-014
lhumerus -26.5788 6.29037 79.3509
lradius 46.4393
lwrist 7.62402
lhand -10.1216 32.7505
lfingers 7.12502
lthumb 15.8665 62.1204
rfemur -36.7221 -12.9843 17.8792
rtibia 23.0915
rfoot -1.40187 -25.9283
rtoes 15.3933
lfemur -14.1615 -11.576 -12.6925
ltibia 34.1458
lfoot -16.1917 -6.93598
ltoes -14.2685
227
root 6.66604 17.5195 4.66374 -349.364 -63.5485 357.678
lowerback 6.51379 4.6562 3.06788
upperback 2.69109 6.34074 2.417
thorax -0.79914 3.14323 0.333813
lowerneck -15.4644 -10.6174 -11.537
upperneck 2.69228 -13.1478 13.5592
head 4.98964 -5.953 4.77678
rclavicle 1.60618e-013 -3.18055e-015
rhumerus 20.9286 27.1297 -54.6742
rradius 75.9638
rwrist -35.9114
rhand 16.9492 -39.7953
rfingers 7.12502
rthumb 41.6831 -64.4907
lclavicle 1.60618e-013 -3.18055e-015
lhumerus -26.7201 6.76482 78.714
lradius 46.2284
lwrist 7.20522
lhand -10.1444 32.5784
lfingers 7.12502
lthumb 15.8446 61.9501
rfemur -36.321 -12.7321 17.8704
rtibia 22.57
rfoot -1.28671 -26.2953
rtoes 16.1975
lfemur -14.0657 -11.6777 -12.1958
ltibia 34.8073
lfoot -15.7215 -7.3246
ltoes -14.9671
228
root 6.46573 17.5219 4.64006 -349.167 -63.2596 357.362
lowerback 6.40619 4.73495 3.23936
upperback 2.57863 6.45734 2.4302
thorax -0.836276 3.20186 0.250113
lowerneck -15.3886 -10.7485 -11.6239
upperneck 2.8435 -13.3351 13.6137
head 5.05743 -6.04103 4.78219
rclavicle -1.02175e-013 1.11319e-014
rhumerus 22.1197 25.6846 -54.0435
rradius 74.9469
rwrist -35.8005
rhand 16.184 -40.5818
rfingers 7.12502
rthumb 40.9649 -65.5093
lclavicle -1.02175e-013 1.11319e-014
lhumerus -26.8792 7.23331 78.0984
lradius 46.0422
lwrist 6.82541
lhand -10.1492 32.3944
lfingers 7.12502
lthumb 15.8399 61.7665
rfemur -35.9168 -12.4934 17.9244
rtibia 22.1533
rfoot -1.18557 -26.6009
rtoes 16.9746
lfemur -14.0192 -11.7863 -11.6841
ltibia 35.5211
lfoot -15.1901 -7.69612
ltoes -15.6229
229
root 6.26553 17.5255 4.61602 -348.949 -62.9859 357.014
lowerback 6.30817 4.80975 3.41948
upperback 2.46623 6.56926 2.44621
thorax -0.877476 3.2578 0.164368
lowerneck -15.3151 -10.8704 -11.6989
upperneck 3.00185 -13.5125 13.6632
head 5.12571 -6.12417 4.78516
rclavicle 8.62725e-014 -1.43125e-014
rhumerus 23.2683 24.2173 -53.53
rradius 73.8249
rwrist -35.5766
rhand 15.3116 -41.4042
rfingers 7.12502
rthumb 40.1449 -66.5863
lclavicle 8.62725e-014 -1.43125e-014
lhumerus -27.0587 7.6934 77.5014
lradius 45.881
lwrist 6.48202
lhand -10.1418 32.2059
lfingers 7.12502
lthumb 15.8471 61.5774
rfemur -35.5096 -12.2736 18.0411
rtibia 21.8363
rfoot -1.10327 -26.8434
rtoes 17.7212
lfemur -14.0223 -11.9028 -11.1601
ltibia 36.2821
lfoot -14.6005 -8.04903
ltoes -16.2326
